# File created by Blade
# Date/Time:  Thu Jan 22 19:13:14 2015
# Frame Rate: 120.000 fps
#------------------------------------------------------
:FULLY-SPECIFIED
:DEGREES
1742
root -0.506796 23.532052 -4.909213 19.134497 -31.054316 35.863051
RightUpLeg -113.919317 -43.362507 -2.145182
RightLeg 97.942278 -0.000000 -0.000000
RightFoot -33.978858 -4.302499 9.295400
RightToeBase -0.535526 -0.000000 0.000000
LeftUpLeg -18.773235 22.105604 -0.986500
LeftLeg 6.697597 -0.000000 -0.000000
LeftFoot -11.591364 1.695750 -36.773258
LeftToeBase 6.080361 -0.000000 -0.000000
Spine 10.019097 16.378404 33.938474
RightShoulder -10.704070 -1.604151 -20.215211
RightArm 16.888528 37.335554 55.117043
RightForeArm 31.135545 0.000000 20.131997
RightHand 16.829820 -0.000000 3.045315
RightHandThumb1 -24.326973 -0.000000 -32.862282
LeftShoulder -27.570578 5.165108 37.485078
LeftArm -9.528296 -37.062566 -9.585433
LeftForeArm -7.766683 -0.000000 1.448520
LeftHand -4.106154 -0.000000 -0.555755
LeftHandThumb1 -26.253704 0.000000 33.147579
Head -20.835892 17.444940 -3.954549
1743
root -0.510422 23.526240 -4.912565 19.264118 -31.062662 35.749789
RightUpLeg -113.962080 -43.278804 -2.065809
RightLeg 97.946172 -0.000000 -0.000000
RightFoot -33.939042 -4.386062 9.292407
RightToeBase -0.367623 -0.000000 0.000000
LeftUpLeg -18.748655 22.027146 -0.856627
LeftLeg 6.541733 -0.000000 -0.000000
LeftFoot -11.580395 1.838522 -37.141171
LeftToeBase 6.083961 -0.000000 -0.000000
Spine 9.970351 16.500166 33.934873
RightShoulder -10.645383 -1.624073 -20.120463
RightArm 16.822758 37.366789 55.211730
RightForeArm 31.383043 -0.000000 20.047558
RightHand 17.130791 -0.000000 2.213828
RightHandThumb1 -24.326973 -0.000000 -32.862282
LeftShoulder -27.502221 5.048312 37.565418
LeftArm -9.535380 -36.937467 -9.603613
LeftForeArm -7.811555 0.000000 1.464876
LeftHand -4.109181 -0.000000 -0.507153
LeftHandThumb1 -26.253704 0.000000 33.147579
Head -20.884727 17.432904 -3.907104
1744
root -0.512250 23.523674 -4.914891 19.394709 -31.076165 35.663422
RightUpLeg -114.010133 -43.201957 -2.006694
RightLeg 97.906128 -0.000000 -0.000000
RightFoot -33.811359 -4.644795 9.066957
RightToeBase -0.619685 -0.000000 0.000000
LeftUpLeg -18.782849 22.058433 -0.806073
LeftLeg 6.419945 -0.000000 -0.000000
LeftFoot -11.498204 2.010532 -37.500459
LeftToeBase 6.212009 -0.000000 -0.000000
Spine 9.915207 16.611277 33.922674
RightShoulder -10.578464 -1.650099 -20.043211
RightArm 16.776021 37.401309 55.294053
RightForeArm 31.633438 -0.000000 19.927423
RightHand 17.195306 0.000000 1.995765
RightHandThumb1 -24.326973 -0.000000 -32.862282
LeftShoulder -27.503636 5.078492 37.517330
LeftArm -9.377089 -36.902051 -9.693608
LeftForeArm -7.934559 -0.000000 1.428450
LeftHand -4.064977 -0.000000 -0.559160
LeftHandThumb1 -26.253704 0.000000 33.147579
Head -20.924279 17.442167 -3.912670
1745
root -0.512117 23.519864 -4.918703 19.512441 -31.094454 35.601794
RightUpLeg -114.109965 -43.105699 -1.918793
RightLeg 97.888219 -0.000000 -0.000000
RightFoot -33.760310 -4.811765 9.010121
RightToeBase -0.229944 -0.000000 0.000000
LeftUpLeg -18.815423 22.097440 -0.766797
LeftLeg 6.274099 -0.000000 -0.000000
LeftFoot -11.366401 2.224874 -38.069535
LeftToeBase 6.376906 -0.000000 -0.000000
Spine 9.868901 16.684739 33.877135
RightShoulder -10.526897 -1.593326 -20.005206
RightArm 16.731450 37.396324 55.427774
RightForeArm 31.489349 -0.000000 19.848459
RightHand 17.243770 0.000000 1.008722
RightHandThumb1 -24.326973 -0.000000 -32.862282
LeftShoulder -27.524421 5.152400 37.408983
LeftArm -9.226335 -37.069295 -9.728767
LeftForeArm -7.865019 0.000000 1.387564
LeftHand -4.029098 0.000000 -0.654804
LeftHandThumb1 -26.253704 0.000000 33.147579
Head -21.009561 17.483671 -3.951902
1746
root -0.510018 23.515620 -4.916700 19.568425 -31.112871 35.577749
RightUpLeg -114.151053 -43.051449 -1.930627
RightLeg 97.889775 -0.000000 -0.000000
RightFoot -33.632865 -4.968776 8.902411
RightToeBase -0.016504 -0.000000 0.000000
LeftUpLeg -18.780565 22.184668 -0.768679
LeftLeg 6.066616 -0.000000 -0.000000
LeftFoot -11.130565 2.465211 -38.721127
LeftToeBase 6.305142 -0.000000 -0.000000
Spine 9.857983 16.719029 33.807890
RightShoulder -10.499404 -1.611834 -19.973899
RightArm 16.772814 37.286456 55.565019
RightForeArm 31.229207 -0.000000 19.676333
RightHand 17.420773 -0.000000 0.174330
RightHandThumb1 -24.326973 -0.000000 -32.862282
LeftShoulder -27.509413 5.086844 37.462099
LeftArm -9.157935 -36.944349 -9.863697
LeftForeArm -7.863021 -0.000000 1.407962
LeftHand -3.976918 -0.000000 -0.580904
LeftHandThumb1 -26.253704 0.000000 33.147579
Head -21.052188 17.512577 -3.974741
1747
root -0.508014 23.511015 -4.915290 19.621228 -31.141051 35.556249
RightUpLeg -114.218482 -42.997120 -1.909916
RightLeg 97.896851 -0.000000 -0.000000
RightFoot -33.542745 -5.105720 8.797304
RightToeBase 0.100434 -0.000000 -0.000000
LeftUpLeg -18.731153 22.372949 -0.790943
LeftLeg 5.812093 -0.000000 -0.000000
LeftFoot -10.812643 2.569170 -39.484977
LeftToeBase 6.752295 -0.000000 -0.000000
Spine 9.853972 16.757847 33.739096
RightShoulder -10.465346 -1.559261 -19.997068
RightArm 16.771486 37.207054 55.750654
RightForeArm 30.607348 -0.000000 19.469451
RightHand 17.949470 -0.000000 -1.000928
RightHandThumb1 -24.326973 -0.000000 -32.862282
LeftShoulder -27.482969 5.060407 37.442468
LeftArm -9.122923 -36.981682 -9.912869
LeftForeArm -7.849948 0.000000 1.470518
LeftHand -4.016061 0.000000 -0.798668
LeftHandThumb1 -26.253704 0.000000 33.147579
Head -21.083888 17.572482 -4.001022
1748
root -0.504692 23.506172 -4.914611 19.681366 -31.166139 35.536236
RightUpLeg -114.290725 -42.955398 -1.878847
RightLeg 97.901032 -0.000000 -0.000000
RightFoot -33.480444 -5.208120 8.714889
RightToeBase 0.108481 -0.000000 -0.000000
LeftUpLeg -18.657003 22.499280 -0.796292
LeftLeg 5.531796 -0.000000 -0.000000
LeftFoot -10.584456 2.594911 -40.048896
LeftToeBase 7.030049 -0.000000 -0.000000
Spine 9.843861 16.783502 33.675399
RightShoulder -10.442406 -1.586719 -20.031551
RightArm 16.852245 37.086420 55.951282
RightForeArm 30.209277 -0.000000 19.209469
RightHand 18.308151 0.000000 -1.493317
RightHandThumb1 -24.326973 -0.000000 -32.862282
LeftShoulder -27.490336 5.088982 37.382203
LeftArm -8.989082 -37.073442 -10.028487
LeftForeArm -7.795552 0.000000 1.487485
LeftHand -3.952718 0.000000 -0.964744
LeftHandThumb1 -26.253704 0.000000 33.147579
Head -21.090028 17.637211 -4.034703
1749
root -0.496189 23.503677 -4.907273 19.660543 -31.185005 35.613624
RightUpLeg -114.323909 -42.976579 -1.976794
RightLeg 97.906914 -0.000000 -0.000000
RightFoot -33.401149 -5.216667 8.728882
RightToeBase 0.120184 -0.000000 -0.000000
LeftUpLeg -18.575093 22.707985 -0.936504
LeftLeg 5.290952 -0.000000 -0.000000
LeftFoot -10.316188 2.447552 -40.173884
LeftToeBase 7.007364 -0.000000 -0.000000
Spine 9.838139 16.777412 33.548060
RightShoulder -10.391504 -1.551893 -20.064111
RightArm 16.879916 37.074795 56.123728
RightForeArm 29.732738 -0.000000 18.857935
RightHand 18.580224 -0.000000 -1.218441
RightHandThumb1 -24.326973 -0.000000 -32.862282
LeftShoulder -27.510593 5.155980 37.284048
LeftArm -8.720810 -37.117692 -10.226216
LeftForeArm -7.811431 0.000000 1.428501
LeftHand -3.828456 -0.000000 -0.936764
LeftHandThumb1 -26.253704 0.000000 33.147579
Head -21.067483 17.670440 -4.055463
1750
root -0.492415 23.497814 -4.904643 19.690094 -31.164676 35.609871
RightUpLeg -114.335526 -42.975252 -2.041786
RightLeg 97.929620 -0.000000 -0.000000
RightFoot -33.310675 -5.312687 8.738739
RightToeBase 0.192618 -0.000000 -0.000000
LeftUpLeg -18.491238 22.799827 -0.946086
LeftLeg 5.072740 -0.000000 -0.000000
LeftFoot -10.137655 2.249306 -40.388381
LeftToeBase 7.233210 -0.000000 -0.000000
Spine 9.806049 16.754131 33.516200
RightShoulder -10.346573 -1.605912 -20.126058
RightArm 16.900534 36.838448 56.236846
RightForeArm 29.641522 -0.000000 18.585015
RightHand 18.847275 -0.000000 -1.526095
RightHandThumb1 -24.326973 -0.000000 -32.862282
LeftShoulder -27.512275 5.249183 37.158902
LeftArm -8.461044 -37.199717 -10.421914
LeftForeArm -7.800189 0.000000 1.391160
LeftHand -3.782867 -0.000000 -1.056787
LeftHandThumb1 -26.253704 0.000000 33.147579
Head -20.958750 17.678760 -4.114768
1751
root -0.482927 23.496974 -4.897815 19.683984 -31.176031 35.707806
RightUpLeg -114.377368 -43.003955 -2.166227
RightLeg 97.927098 -0.000000 -0.000000
RightFoot -33.229046 -5.357527 8.712538
RightToeBase 0.109685 -0.000000 -0.000000
LeftUpLeg -18.451406 22.883304 -1.075511
LeftLeg 4.909021 -0.000000 -0.000000
LeftFoot -9.957606 2.156232 -40.442125
LeftToeBase 7.414800 -0.000000 -0.000000
Spine 9.751886 16.776012 33.369256
RightShoulder -10.286022 -1.665163 -20.113296
RightArm 16.846236 36.725509 56.288183
RightForeArm 29.677121 0.000000 18.404159
RightHand 19.229418 0.000000 -1.766049
RightHandThumb1 -24.326973 -0.000000 -32.862282
LeftShoulder -27.312360 4.956071 37.358760
LeftArm -8.638123 -36.853502 -10.532726
LeftForeArm -7.904384 0.000000 1.538951
LeftHand -3.793660 -0.000000 -1.238124
LeftHandThumb1 -26.253704 0.000000 33.147579
Head -20.830998 17.735364 -4.116732
1752
root -0.472250 23.496061 -4.892760 19.692911 -31.176717 35.805999
RightUpLeg -114.453933 -43.039736 -2.262498
RightLeg 97.925576 -0.000000 -0.000000
RightFoot -33.161571 -5.378757 8.649547
RightToeBase 0.040717 -0.000000 -0.000000
LeftUpLeg -18.458397 22.927817 -1.201500
LeftLeg 4.787744 -0.000000 -0.000000
LeftFoot -9.816033 2.096715 -40.511117
LeftToeBase 7.377658 -0.000000 -0.000000
Spine 9.677494 16.775611 33.248032
RightShoulder -10.206584 -1.801743 -20.152951
RightArm 16.806654 36.728156 56.494494
RightForeArm 29.687877 0.000000 18.480931
RightHand 19.334770 -0.000000 -3.056826
RightHandThumb1 -24.326973 -0.000000 -32.862282
LeftShoulder -27.292317 4.998292 37.251226
LeftArm -8.338164 -36.827740 -10.770836
LeftForeArm -7.910605 0.000000 1.480216
LeftHand -3.736904 -0.000000 -1.327442
LeftHandThumb1 -26.253704 0.000000 33.147579
Head -20.646577 17.797679 -4.161056
